PathFileType	4	(X/Y/Z)	Walk1.trc
DataRate	CameraRate	NumFrames	NumMarkers	Units	OrigDataRate	OrigDataStartFrame	OrigNumFrames
200.000000	200.000000	4	59	mm	200.000000	436	610
Frame#	Times		LFHD		RFHD		CLAV		STRN		LASI		RASI		RACR1		RUA1		RElbow		RElbowM		RFA1		RWRR		RWRU		RCAR		LACR1		LUA1		LElbow		LFA1		LWRR		LWRU		LCAR		RTH2		RTB1		RTB2		LTH1		LTH3		LTH2		LMFC		LTB1		LTB2		LTB4		LMT1		LToe		LLFC		LMT5		RTH3		LTB3		RTB4		RTB3		RMFC		LTH4		RTH4		RToe		RTH1		RMMAL		RLFC		RBHD		RMT1		RCAL		RBack		LMMAL		LLMAL		RPSI		C7		T10		LPSI		LCAL		LBHD		LElbowM
			X1	Y1	Z1	X2	Y2	Z2	X3	Y3	Z3	X4	Y4	Z4	X5	Y5	Z5	X6	Y6	Z6	X7	Y7	Z7	X8	Y8	Z8	X9	Y9	Z9	X10	Y10	Z10	X11	Y11	Z11	X12	Y12	Z12	X13	Y13	Z13	X14	Y14	Z14	X15	Y15	Z15	X16	Y16	Z16	X17	Y17	Z17	X18	Y18	Z18	X19	Y19	Z19	X20	Y20	Z20	X21	Y21	Z21	X22	Y22	Z22	X23	Y23	Z23	X24	Y24	Z24	X25	Y25	Z25	X26	Y26	Z26	X27	Y27	Z27	X28	Y28	Z28	X29	Y29	Z29	X30	Y30	Z30	X31	Y31	Z31	X32	Y32	Z32	X33	Y33	Z33	X34	Y34	Z34	X35	Y35	Z35	X36	Y36	Z36	X37	Y37	Z37	X38	Y38	Z38	X39	Y39	Z39	X40	Y40	Z40	X41	Y41	Z41	X42	Y42	Z42	X43	Y43	Z43	X44	Y44	Z44	X45	Y45	Z45	X46	Y46	Z46	X47	Y47	Z47	X48	Y48	Z48	X49	Y49	Z49	X50	Y50	Z50	X51	Y51	Z51	X52	Y52	Z52	X53	Y53	Z53	X54	Y54	Z54	X55	Y55	Z55	X56	Y56	Z56	X57	Y57	Z57	X58	Y58	Z58	X59	Y59	Z59

436	2.18	646.29	1676.8	100.6	647.58	1671.2	1.6309	662.86	1411.1	66.133	730.96	1252.4	60.58	593.15	1001.6	-118.29	642.66	988.01	246.85	551.65	1493.3	238.65	531.93	1327.5	359.59	546.2	1180.3	411.66	490.7	1106.7	321.07	583.78	1031	426.07	607.63	913.41	356.42	603.22	918.6	438.07	640.91	837.44	405.42	537.97	1470.6	-112.53	511.59	1296.6	-198.16	510.84	1131.8	-246.65	545.88	996.05	-259.56	611.9	879.02	-203.26	564.28	858.44	-258.09	626.8	793.83	-239.77	655.2	715.33	238.66	678	380.09	143.9	650.57	292.73	196.72	566.49	768.09	-154.08	602.2	600.17	-155.03	640.24	696.95	-140.12	624.91	505.78	-0.32478	593.52	387.72	-92.997	506.68	338.35	-121.18	539.32	327.58	-68.929	396.91	64.137	-27.038	429.7	42.269	-71.959	586	522.17	-154.68	339.46	91.337	-92.046	624.78	614.8	240.58	477.25	269.61	-47.67	659.08	295.47	135.85	640.61	211.9	127.66	608.87	503.87	75.037	582.88	684.93	-154.78	602.33	696.05	256.34	755.58	29.512	128.71	577.75	777.87	271.87	576.62	81.919	73.396	631.05	498.84	230.13	504.4	1580.4	-7.3307	705.88	24.593	98.542	486.74	50.124	122.72	409.24	1370.5	189.33	343.34	195.32	47.12	307.14	203.73	-34.829	365.88	1034.5	123.56	467.34	1487.2	69.708	407.26	1172.5	81.691	367.34	1039.6	37.156	258.63	212.53	28.909	517.43	1595.7	141.26	453.25	1073.4	-152.33
437	2.185	652.25	1678	100.52	653.6	1672.3	1.5591	668.63	1412.3	66.134	736.77	1253.6	60.686	599.6	1002.8	-117.96	648.12	989.8	246.94	557.2	1494.6	238.54	537.9	1328.9	359.7	553.16	1181.9	412.09	498.22	1107.9	321.49	592.03	1033	426.37	616.92	915.65	356.66	612.46	920.79	438.31	650.89	840	405.68	543.85	1471.7	-112.67	516.7	1297.6	-198.01	514.77	1132.7	-246.11	548.57	996.63	-258.89	613.68	879.06	-202.51	565.8	858.87	-257.29	627.59	793.56	-238.95	658.29	715.12	238.81	678.6	379.87	144.16	650.92	292.56	196.91	574.83	769.68	-153.68	612.36	602.14	-154.21	649.35	699.31	-139.5	635.68	508.19	0.55741	606.86	389.65	-92.213	521.12	338.54	-120.7	553.83	328.38	-68.391	418.05	62.678	-27.359	451.6	41.798	-72.003	597.08	523.97	-153.76	360.04	88.354	-92.544	626.86	614.95	240.71	492.94	269.12	-47.371	659.52	295.3	136.05	640.87	211.77	127.81	609.81	503.93	75.136	592.11	686.69	-154.18	605.14	696.42	256.36	755.57	29.531	128.78	581.44	778.49	271.96	576.7	81.944	73.389	632.02	498.82	230.26	510.34	1581.6	-7.51	705.88	24.631	98.609	486.72	50.202	122.67	414.95	1371.6	189.16	360.21	191.91	46.871	324.2	199.47	-35.21	371.59	1035.9	123.33	473.23	1488.5	69.521	413.2	1173.7	81.6	373.36	1040.8	36.861	274.97	206.83	28.264	523.26	1597	141.14	456.8	1075	-151.56
438	2.19	658.19	1679.1	100.43	659.61	1673.3	1.4755	674.4	1413.5	66.121	742.57	1254.8	60.783	606.08	1003.8	-117.59	653.59	991.54	246.99	562.76	1495.9	238.43	543.87	1330.3	359.81	560.1	1183.5	412.5	505.71	1109	321.93	600.26	1034.9	426.65	626.17	917.86	356.88	621.68	922.95	438.53	660.84	842.54	405.92	549.74	1472.6	-112.82	521.78	1298.5	-197.89	518.67	1133.5	-245.61	551.24	997.21	-258.25	615.46	879.14	-201.79	567.32	859.33	-256.5	628.41	793.35	-238.14	661.36	714.89	238.93	679.19	379.65	144.4	651.26	292.39	197.09	583.1	771.23	-153.31	622.43	604.08	-153.37	658.36	701.62	-138.84	646.31	510.56	1.4829	620.14	391.56	-91.402	535.57	338.69	-120.23	568.34	329.17	-67.859	439.33	61.212	-27.72	473.63	41.358	-72.084	608.04	525.75	-152.81	380.8	85.336	-93.093	628.92	615.09	240.83	508.69	268.58	-47.103	659.94	295.12	136.23	641.12	211.65	127.95	610.74	503.98	75.228	601.27	688.42	-153.59	607.95	696.77	256.37	755.55	29.551	128.85	585.14	779.09	272.05	576.78	81.965	73.379	632.97	498.81	230.38	516.26	1582.8	-7.7069	705.88	24.67	98.679	486.7	50.273	122.62	420.66	1372.8	188.98	377.25	188.38	46.554	341.45	195.09	-35.66	377.29	1037.2	123.07	479.12	1489.6	69.332	419.13	1174.8	81.484	379.35	1042	36.543	291.54	200.98	27.547	529.08	1598.2	141.01	460.29	1076.6	-150.85
439	2.195	664.13	1680.2	100.32	665.62	1674.3	1.3806	680.15	1414.6	66.094	748.35	1255.9	60.875	612.6	1004.9	-117.18	659.05	993.23	247.02	568.32	1497.1	238.31	549.84	1331.6	359.9	567.04	1185	412.91	513.16	1110	322.37	608.47	1036.9	426.91	635.38	920.04	357.08	630.89	925.08	438.73	670.77	845.05	406.12	555.61	1473.6	-112.98	526.86	1299.4	-197.79	522.53	1134.4	-245.16	553.9	997.79	-257.64	617.24	879.24	-201.08	568.85	859.81	-255.73	629.25	793.18	-237.34	664.42	714.65	239.04	679.75	379.44	144.62	651.58	292.23	197.26	591.3	772.74	-152.96	632.39	605.99	-152.5	667.28	703.89	-138.16	656.79	512.89	2.4482	633.33	393.47	-90.569	550.02	338.81	-119.76	582.85	329.94	-67.338	460.72	59.756	-28.127	495.76	40.967	-72.214	618.9	527.51	-151.82	401.7	82.304	-93.693	630.97	615.23	240.94	524.48	268.01	-46.87	660.35	294.95	136.41	641.35	211.52	128.08	611.65	504.01	75.317	610.36	690.12	-153	610.77	697.11	256.37	755.52	29.573	128.93	588.85	779.67	272.13	576.85	81.982	73.367	633.91	498.8	230.49	522.18	1583.9	-7.9204	705.88	24.71	98.753	486.68	50.335	122.56	426.37	1373.9	188.79	394.47	184.74	46.17	358.89	190.61	-36.173	382.99	1038.5	122.79	485	1490.8	69.14	425.05	1175.9	81.341	385.33	1043.1	36.202	308.34	195	26.766	534.88	1599.4	140.87	463.75	1078.2	-150.2
